<svg width="137" height="26" viewBox="0 0 137 26" fill="none" xmlns="http://www.w3.org/2000/svg">
<g clip-path="url(#clip0_13_55)">
<path d="M0.5 11.41V1.34567C0.5 1.34567 0.933164 0.311288 1.35956 0.653753L5.94839 0.583862C5.94839 0.583862 6.52369 0.653753 6.7132 1.49244V11.41C6.7132 11.41 6.85533 11.5078 5.94839 12.1997H1.35956C1.35956 12.1997 0.736887 12.053 0.5 11.41Z" fill="#0F0F0F"/>
<path d="M11.3427 23.7807V2.21232C11.3427 2.21232 11.7758 -0.0102103 12.2022 0.730634L16.791 0.576874C16.791 0.576874 17.3663 0.730634 17.5558 2.52683V23.7737C17.5558 23.7737 17.698 23.9834 16.791 25.465H12.2022C12.2022 25.465 11.5795 25.1505 11.3427 23.7737V23.7807Z" fill="#0F0F0F"/>
<path d="M0.5 24.6823V14.618C0.5 14.618 0.933164 13.5836 1.35956 13.926L5.94839 13.8562C5.94839 13.8562 6.52369 13.926 6.7132 14.7647V24.6823C6.7132 24.6823 6.85533 24.7801 5.94839 25.472H1.35956C1.35956 25.472 0.736887 25.3253 0.5 24.6823Z" fill="#0F0F0F"/>
<path d="M19.038 14.4153V4.25314C19.038 4.25314 19.5659 3.36553 19.945 3.9596C20.324 4.55368 23.1937 9.43905 23.1937 9.43905C23.1937 9.43905 23.478 9.78152 23.8637 9.48798C24.2495 9.19444 28.7368 1.14999 28.7368 1.14999C28.7368 1.14999 29.4069 0.465054 29.6911 0.583868C29.9754 0.702683 34.9433 0.583868 34.9433 0.583868C34.9433 0.583868 35.4712 0.555912 35.6607 1.49245C35.8502 2.42899 35.6607 24.3817 35.6607 24.3817C35.6607 24.3817 36.1412 24.4307 35.1328 25.4651H30.2597C30.2597 25.4651 29.928 25.6607 29.4949 24.3817V13.8492C29.4949 13.8492 29.6844 12.7379 28.6827 13.3739L24.1412 21.3135C24.1412 21.3135 23.7081 21.9076 23.1395 21.5092L19.0312 14.4083L19.038 14.4153Z" fill="#0F0F0F"/>
<path d="M40.4391 1.5903V24.7801C40.4391 24.7801 40.8181 25.4441 41.2986 25.479L45.8401 25.4651C45.8401 25.4651 46.4628 25.2694 46.6049 24.3817C46.747 23.4941 46.6049 7.60791 46.6049 7.60791C46.6049 7.60791 46.5102 6.81814 47.7014 6.81814C48.8926 6.81814 57.0685 6.76922 57.0685 6.76922C57.0685 6.76922 58.165 6.86706 58.3613 7.46114C58.5575 8.05521 58.5034 9.97721 57.1159 9.83044H49.1362C49.1362 9.83044 48.4188 10.124 48.2766 10.5713C48.1345 11.0186 48.2293 15.5056 48.2293 15.5056C48.2293 15.5056 48.3105 16.0507 49.4408 16.2464L58.165 16.1975C58.165 16.1975 62.8012 15.0164 63.8976 11.5567C64.9941 8.09714 64.8993 3.12091 59.4577 0.849451C59.4577 0.849451 57.6912 0.437095 57.258 0.569888C56.8249 0.70268 41.346 0.541931 41.346 0.541931C41.346 0.541931 40.6286 0.800528 40.4391 1.5903Z" fill="#0F0F0F"/>
<path d="M62.6591 24.5774L70.632 1.29675C70.632 1.29675 70.9637 0.583857 71.8232 0.541923C72.6828 0.499988 76.7437 0.541923 76.7437 0.541923C76.7437 0.541923 77.6506 0.555901 77.698 1.1989C77.7454 1.84189 85.583 23.8436 85.583 23.8436C85.583 23.8436 85.962 24.85 85.2039 25.486H80.1413C80.1413 25.486 80.4256 25.5769 79.4239 25.0317L78.6117 22.7113C78.6117 22.7113 78.517 22.264 77.6574 22.3199C76.7979 22.3759 72.7843 22.3199 72.7843 22.3199C72.7843 22.3199 71.7826 22.2221 72.1143 20.7893C72.4459 19.3566 73.8808 16.2534 73.8808 16.2534L75.5051 16.0577C75.5051 16.0577 76.0331 16.1556 75.9857 14.576L75.0787 12.011C75.0787 12.011 74.3613 11.0745 73.5017 11.9621L68.9603 25.1366C68.9603 25.1366 68.6693 25.4511 68.2158 25.493C67.7623 25.5349 63.5119 25.493 63.5119 25.493C63.5119 25.493 62.7471 25.4301 62.6523 24.5914L62.6591 24.5774Z" fill="#0F0F0F"/>
<path d="M86.4493 12.1997H91.0855C91.0855 12.1997 91.6608 12.053 91.8029 11.1164C91.945 10.1799 91.8029 9.09659 91.8029 9.09659C91.8029 9.09659 92.0398 6.87405 95.7217 6.87405H108.859C108.859 6.87405 109.908 6.9719 109.86 5.58806C109.813 4.20422 109.86 1.49245 109.86 1.49245C109.86 1.49245 109.813 0.499998 108.568 0.527954C107.322 0.55591 94.1853 0.527954 94.1853 0.527954C94.1853 0.527954 89.3596 0.954289 86.923 5.09882C86.923 5.09882 84.3444 10.4734 86.4425 12.1997H86.4493Z" fill="#0F0F0F"/>
<path d="M86.4492 13.7793H90.8418C90.8418 13.7793 91.8434 14.1217 91.6539 14.8626C91.4644 15.6034 91.7013 19.5523 94.6658 19.1539L108.52 19.1819C108.52 19.1819 109.671 19.105 109.86 20.1394C110.05 21.1737 109.86 24.7801 109.86 24.7801C109.86 24.7801 109.427 25.528 108.953 25.5C108.48 25.472 93.7588 25.5 93.7588 25.5C93.7588 25.5 90.3206 25.7167 87.4035 21.7678C84.4864 17.819 85.8739 13.8771 86.4492 13.7723V13.7793Z" fill="#0F0F0F"/>
<path d="M112.195 1.04514V5.71386C112.195 5.71386 111.938 6.30793 113.15 6.89502C114.361 7.4821 135.701 6.89502 135.701 6.89502C135.701 6.89502 136.405 7.02781 136.466 5.64397C136.527 4.26013 136.466 1.36664 136.466 1.36664C136.466 1.36664 136.019 0.318277 134.876 0.513972C133.732 0.709666 113.028 0.513972 113.028 0.513972C113.028 0.513972 112.771 0.311288 112.202 1.03815L112.195 1.04514Z" fill="#0F0F0F"/>
<path d="M121.637 25.486H126.158C126.158 25.486 126.734 25.6607 127.302 24.8151C127.871 23.9694 127.302 9.04766 127.302 9.04766C127.302 9.04766 127.431 8.55842 126.091 8.51649C124.75 8.47455 121.948 8.51649 121.948 8.51649C121.948 8.51649 120.933 8.831 121.123 9.62775C121.312 10.4245 121.123 24.9059 121.123 24.9059C121.123 24.9059 120.926 25.0806 121.63 25.486H121.637Z" fill="#0F0F0F"/>
</g>
<defs>
<clipPath id="clip0_13_55">
<rect width="136" height="25" fill="white" transform="translate(0.5 0.5)"/>
</clipPath>
</defs>
</svg>
