<?xml version="1.0" encoding="iso-8859-1"?>
<!-- Uploaded to: SVG Repo, www.svgrepo.com, Generator: SVG Repo Mixer Tools -->
<svg fill="#000000" height="800px" width="800px" version="1.1" id="Layer_1" xmlns="http://www.w3.org/2000/svg" xmlns:xlink="http://www.w3.org/1999/xlink" 
	 viewBox="0 0 512.001 512.001" xml:space="preserve">
<g>
	<g>
		<path d="M445.906,71.665H343.627c-57.8,0-111.274,28.997-143.039,77.284L56.898,367.452c-0.842,1.281-1.469,2.722-1.926,4.112
			h-9.875C20.191,371.563,0,391.755,0,416.661h107.67v-19.144c0-10.279-5.975-19.16-14.641-23.364l135.815-206.615
			c25.49-38.749,68.401-62.05,114.782-62.05h102.279c17.718,0,32.132,14.582,32.132,32.3c0,17.718-14.134,32.215-31.852,32.215
			c-40.72,0-73.566,33.212-73.566,73.931v44.256l28.146-5.031c1.89-0.337,3.422-0.566,5.677-0.708v-38.518
			c0-22.068,17.675-40.023,39.744-40.023c36.368,0,65.815-29.755,65.815-66.123C512.001,101.42,482.273,71.665,445.906,71.665z"/>
	</g>
</g>
<g>
	<g>
		<path d="M430.952,312.557c-7.53-6.304-17.112-8.926-26.78-7.199l-136.017,24.308c-26.983,4.822-47.137,26.753-50.154,53.437
			c0.779-0.17,1.585-0.266,2.415-0.266h24.804c6.227,0,11.274,5.048,11.274,11.274s-5.048,11.274-11.274,11.274h-24.804
			c-0.976,0-2.255-0.138-3.382-0.37v35.32h180.112c-3.762-6.765-5.926-14.299-5.926-22.381c0-24.682,19.8-44.846,44.482-44.846
			c2.416,0,4.565,0.115,6.82,0.485v-35.665C442.521,328.109,438.482,318.86,430.952,312.557z"/>
	</g>
</g>
<g>
	<g>
		<path d="M435.981,395.576c-12.248,0-22.214,9.964-22.214,22.213s9.964,22.213,22.214,22.213c12.249,0,22.213-9.964,22.213-22.213
			S448.229,395.576,435.981,395.576z"/>
	</g>
</g>
</svg>