<svg width="67" height="67" viewBox="0 0 67 67" fill="none" xmlns="http://www.w3.org/2000/svg">
<circle cx="33.5" cy="33.3536" r="33.172" fill="black"/>
<g clip-path="url(#clip0_15_104)">
<rect width="31" height="55" transform="translate(18 6.31738)" fill="black"/>
<path d="M45.75 40.2285H55.875V36.791H45.75V40.2285Z" fill="black"/>
<path d="M40.6923 40.2285C40.6803 38.7782 40.3004 37.3557 39.5895 36.0991C38.8786 34.8424 37.8608 33.7943 36.6349 33.0563L49.125 11.0098L46.2041 9.29102L33.4199 31.8513C31.8506 31.4941 30.2185 31.5434 28.6727 31.9947C27.127 32.4459 25.717 33.2848 24.5718 34.4344C18.2545 40.641 18.7437 55.1509 18.7668 55.766C18.7843 56.2098 18.9697 56.6295 19.2843 56.9372C19.5989 57.2448 20.0182 57.4164 20.4543 57.416H45.752C46.1062 57.416 46.4514 57.3025 46.7387 57.0916C47.026 56.8807 47.2409 56.583 47.3529 56.2408C47.4649 55.8986 47.4683 55.5291 47.3627 55.1848C47.2571 54.8405 47.0478 54.5387 46.7645 54.3223C40.7912 49.7571 40.6923 40.3208 40.6923 40.2285ZM32.1318 35.0673C33.4825 35.0823 34.7754 35.6272 35.7416 36.5885C36.7078 37.5499 37.2729 38.8536 37.3194 40.2285C37.3194 40.294 37.3226 40.586 37.3477 41.0343L27.3925 36.525C28.0482 35.9742 28.8049 35.5617 29.6185 35.3115C30.4321 35.0613 31.2864 34.9782 32.1318 35.0673ZM38.0708 53.9785C36.7224 52.5795 35.8629 50.7677 35.625 48.8223H32.25C32.371 50.6516 32.9322 52.4224 33.8841 53.9785H30.1323C29.4383 51.748 29.016 49.439 28.875 47.1035H25.5C25.6089 49.432 25.9856 51.7394 26.6225 53.9785H22.125C22.1773 50.8222 22.6143 43.8515 25.167 39.2786L37.879 45.0364C38.4904 48.2664 39.7931 51.3195 41.6946 53.9785H38.0708Z" fill="#94D40B"/>
</g>
<defs>
<clipPath id="clip0_15_104">
<rect width="31" height="55" fill="white" transform="translate(18 6.31738)"/>
</clipPath>
</defs>
</svg>
