<svg width="67" height="68" viewBox="0 0 67 68" fill="none" xmlns="http://www.w3.org/2000/svg">
<circle cx="33.5001" cy="34.0709" r="33.172" fill="black"/>
<g clip-path="url(#clip0_15_120)">
<path d="M40.5733 48.9822C39.9479 49.2578 39.2988 49.4971 38.6441 49.694C38.0855 49.862 37.7715 50.442 37.9427 50.9897C38.0823 51.4361 38.5011 51.7231 38.954 51.7231C39.0567 51.7231 39.1612 51.7084 39.2645 51.6773C40.0029 51.4553 40.735 51.1852 41.4406 50.8744C41.9735 50.6395 42.2115 50.0256 41.9719 49.5032C41.7325 48.9807 41.1061 48.7475 40.5733 48.9822Z" fill="#94D40B"/>
<path d="M30.0649 18.1162C30.1381 18.1162 30.2125 18.1088 30.2868 18.0932C30.9558 17.9531 31.6419 17.853 32.3256 17.7953C32.9077 17.7462 33.339 17.2438 33.2889 16.673C33.2388 16.1023 32.7269 15.6797 32.1442 15.7284C31.3733 15.7935 30.5997 15.9066 29.8452 16.0644C29.2737 16.1839 28.9095 16.735 29.0313 17.2952C29.1374 17.7825 29.5764 18.1162 30.0649 18.1162Z" fill="#94D40B"/>
<path d="M37.2126 18.0856C37.8835 18.2243 38.5522 18.4061 39.2 18.6257C39.3146 18.6646 39.4312 18.6829 39.546 18.6829C39.9843 18.6829 40.3944 18.4135 40.5457 17.9845C40.7367 17.4431 40.4438 16.8525 39.8916 16.6653C39.1607 16.4173 38.4063 16.2124 37.6494 16.0558C37.0772 15.9374 36.5164 16.2961 36.3958 16.8566C36.2752 17.4169 36.6408 17.9672 37.2126 18.0856Z" fill="#94D40B"/>
<path d="M23.3452 21.0658C23.5615 21.0658 23.7798 21.001 23.968 20.8665C24.522 20.4701 25.1067 20.1037 25.7053 19.7777C26.2161 19.4995 26.4001 18.8681 26.1163 18.3673C25.8326 17.8665 25.1887 17.6859 24.6777 17.9643C24.0032 18.3315 23.3447 18.7442 22.7206 19.1906C22.2486 19.5282 22.1451 20.1772 22.4895 20.6399C22.6968 20.9183 23.0187 21.0658 23.3452 21.0658Z" fill="#94D40B"/>
<path d="M33.807 50.4073C33.8055 50.4073 33.8041 50.4073 33.8026 50.4073H33.768C33.0802 50.4073 32.3876 50.3656 31.7091 50.2834C31.129 50.2127 30.601 50.617 30.5293 51.1855C30.4576 51.7539 30.8696 52.2719 31.4494 52.3421C32.2137 52.4347 32.9938 52.4818 33.7679 52.4818H33.811C34.3952 52.4795 34.867 52.0132 34.8647 51.4403C34.8625 50.869 34.3893 50.4073 33.807 50.4073Z" fill="#94D40B"/>
<path d="M26.9958 48.9969C26.3703 48.7229 25.7555 48.4074 25.1684 48.059C24.6685 47.7624 24.0181 47.9191 23.7155 48.4093C23.413 48.8994 23.573 49.5371 24.0728 49.8337C24.7346 50.2263 25.4278 50.582 26.1329 50.8908C26.2731 50.9522 26.4196 50.9812 26.5638 50.9812C26.9685 50.9812 27.3547 50.7523 27.5303 50.3668C27.7686 49.8439 27.5293 49.2304 26.9958 48.9969Z" fill="#94D40B"/>
<path d="M50.9591 38.4222C50.4032 38.2459 49.8066 38.5447 49.6267 39.0897C49.4159 39.7288 49.1616 40.3617 48.8707 40.971C48.6231 41.4898 48.8514 42.1072 49.3805 42.3501C49.5255 42.4166 49.678 42.4481 49.8282 42.4481C50.2262 42.4481 50.6074 42.227 50.7871 41.8503C51.1151 41.1633 51.402 40.4494 51.64 39.7286C51.8198 39.1835 51.515 38.5987 50.9591 38.4222Z" fill="#94D40B"/>
<path d="M20.1083 43.417C19.7731 42.9478 19.1135 42.8337 18.6349 43.1622C18.1562 43.4907 18.0399 44.1374 18.3749 44.6067C18.8176 45.2264 19.3042 45.8258 19.8215 46.3883C20.0305 46.6155 20.3184 46.7309 20.6075 46.7309C20.86 46.7309 21.1135 46.6427 21.3158 46.4639C21.7498 46.0803 21.7842 45.4246 21.3929 44.9991C20.9337 44.4998 20.5014 43.9673 20.1083 43.417Z" fill="#94D40B"/>
<path d="M47.6605 44.8948C47.2259 44.5123 46.557 44.5473 46.1666 44.9736C45.7084 45.4739 45.2138 45.9515 44.6965 46.3931C44.2558 46.7693 44.2097 47.4246 44.5934 47.8565C44.8026 48.0921 45.0963 48.2126 45.3916 48.2126C45.6381 48.2126 45.8856 48.1287 46.086 47.9576C46.6684 47.4603 47.2252 46.9226 47.741 46.3595C48.1313 45.9332 48.0952 45.2775 47.6605 44.8948Z" fill="#94D40B"/>
<path d="M58.8582 31.5748L50.1866 16.8496C50.0414 16.6028 49.7988 16.4256 49.5161 16.3593C49.2335 16.2932 48.9354 16.3438 48.692 16.4996L48.4197 16.6738C44.3051 13.331 39.1793 11.5112 33.7679 11.5112C27.6214 11.5112 21.8428 13.8578 17.4967 18.1188C16.4921 19.1036 15.5945 20.1649 14.8043 21.2873L13.8185 21.0303C13.2546 20.8832 12.6757 21.2117 12.5247 21.7643L8.03609 38.1882C7.96327 38.4542 8.00162 38.7377 8.14227 38.9762C8.28302 39.2146 8.51461 39.3884 8.78605 39.4591L11.6104 40.1953C12.6624 43.8749 14.6652 47.247 17.4967 50.0231C21.8429 54.2841 27.6215 56.6307 33.7679 56.6307C39.9143 56.6307 45.6928 54.2841 50.0391 50.0231C54.3838 45.7635 56.7771 40.1004 56.7786 34.0767L58.5203 32.9621C58.9908 32.6609 59.1392 32.0518 58.8582 31.5748ZM33.768 13.5858C38.5764 13.5858 43.0097 15.1876 46.5447 17.874L43.0576 20.106C42.5872 20.407 42.4388 21.0161 42.7198 21.4932L43.0148 21.9942L41.1987 23.0223C40.5518 23.3885 39.8294 23.5133 38.93 23.4134L30.7578 21.285C29.3887 20.9251 27.9696 21.6914 27.4575 23.0671C27.4399 23.1148 27.4256 23.1638 27.4152 23.2136C27.282 23.8475 27.3038 24.4778 27.454 25.0648L27.3546 25.0387C26.3165 24.7659 25.2083 24.7177 24.1499 24.8988C23.3926 25.0287 22.5997 24.9939 21.8569 24.7988L19.8312 24.2666L19.9826 23.7125C20.0555 23.4465 20.0171 23.163 19.8765 22.9245C19.7357 22.6861 19.5041 22.5123 19.2327 22.4416L17.0043 21.8606C20.8159 16.8431 26.9103 13.5858 33.768 13.5858ZM47.0549 31.1429C46.6374 30.4342 45.9654 29.9275 45.1628 29.7168L30.8428 25.941C29.8904 25.6908 29.3008 24.7226 29.4717 23.7138C29.5992 23.4369 29.8713 23.1998 30.212 23.2892C30.212 23.2892 38.5517 25.4579 38.5989 25.4637C39.992 25.6344 41.1882 25.4233 42.2563 24.8187L44.0724 23.7906L50.0476 33.9372L47.6069 35.09C47.3996 34.8505 47.1544 34.6403 46.8762 34.4709C47.0968 34.1759 47.2662 33.8367 47.3685 33.4623C47.5838 32.6754 47.4722 31.8517 47.0549 31.1429ZM33.2748 37.1106L42.7196 39.5918C43.1106 39.8044 43.3203 40.2601 43.1987 40.7053C43.0577 41.2213 42.5148 41.5284 41.9883 41.3903L31.6131 38.6957C31.0487 38.5474 30.4686 38.8758 30.3173 39.4291C30.166 39.9824 30.501 40.5512 31.0654 40.6995L39.9809 43.0416C40.3721 43.2542 40.582 43.7099 40.4603 44.1552C40.392 44.4052 40.2285 44.6141 39.9998 44.7435C39.7713 44.8728 39.5052 44.9072 39.25 44.8402L23.0059 40.5729C22.3056 40.389 21.6617 40.0728 21.0919 39.6332L20.9652 39.5355C20.1691 38.9213 19.2691 38.4794 18.2906 38.2225L16.169 37.6651L19.2833 26.2705L21.3088 26.8026C22.3468 27.0752 23.455 27.1236 24.5136 26.9425C25.2711 26.8128 26.064 26.8474 26.8066 27.0425L44.6152 31.7208C45.1497 31.8612 45.4681 32.4018 45.3228 32.9328C45.1804 33.4528 44.6476 33.7495 44.1094 33.6094L44.1071 33.6088C44.0244 33.587 35.679 31.4256 35.679 31.4256C35.1143 31.2772 34.5346 31.6058 34.3833 32.159C34.232 32.7123 34.5669 33.2811 35.1313 33.4294L45.4917 36.1201C46.0263 36.2605 46.3447 36.8011 46.2014 37.325C46.0606 37.8409 45.5171 38.1484 44.9912 38.01L33.8224 35.1068C33.2574 34.9582 32.6779 35.287 32.5266 35.8402C32.3754 36.3936 32.7104 36.9623 33.2748 37.1106ZM10.3542 37.7213L14.2953 23.3012L17.664 24.1793L13.723 38.5994L10.3542 37.7213ZM33.768 54.5563C24.6607 54.5563 16.8959 48.8143 14.0416 40.8291L14.1998 40.8704C14.2909 40.8941 14.3823 40.9055 14.4723 40.9055C14.9395 40.9055 15.3669 40.5997 15.4936 40.1364L15.6214 39.6688L17.743 40.2262C18.4432 40.4101 19.0871 40.7262 19.6569 41.1659L19.7836 41.2636C20.5796 41.8777 21.4796 42.3195 22.4582 42.5767L38.7024 46.8439C38.9698 46.9142 39.2412 46.949 39.511 46.949C40.0488 46.949 40.5797 46.8107 41.0579 46.5399C41.776 46.1336 42.2897 45.4771 42.5042 44.692C42.6156 44.2844 42.6374 43.8736 42.5813 43.48C43.8161 43.3461 44.9022 42.4877 45.2425 41.2422C45.3458 40.8645 45.372 40.4839 45.3307 40.1168C46.6681 40.0806 47.8819 39.1919 48.2454 37.8618C48.3203 37.5879 48.3525 37.3127 48.3497 37.042L51.1087 35.7387L51.3912 36.2183C51.7727 36.8937 52.7123 36.6792 52.8858 36.5683L54.6123 35.4633C53.8796 46.1117 44.812 54.5563 33.768 54.5563ZM52.665 34.2321L45.0529 21.3062L48.9129 18.8356L56.5249 31.7616L52.665 34.2321Z" fill="#94D40B"/>
</g>
<defs>
<clipPath id="clip0_15_120">
<rect width="51" height="50" fill="white" transform="translate(8 9.07104)"/>
</clipPath>
</defs>
</svg>
