<svg width="67" height="67" viewBox="0 0 67 67" fill="none" xmlns="http://www.w3.org/2000/svg">
<circle cx="33.5001" cy="33.8175" r="33.172" fill="black"/>
<g clip-path="url(#clip0_15_103)">
<rect width="37" height="36" transform="translate(15.0002 15.8174)" fill="black"/>
<path d="M38.9837 25.5543L35.9791 25.1294L34.6355 22.4804C34.1721 21.5667 32.8286 21.5661 32.3648 22.4804L31.0212 25.1294L28.0166 25.5543C26.9803 25.7008 26.5646 26.9437 27.315 27.6553L29.4892 29.7172L28.976 32.6288C28.799 33.633 29.8854 34.4018 30.8129 33.9274L33.5004 32.5527L36.1878 33.9274C37.1115 34.4002 38.2025 33.6379 38.0246 32.6288L37.5114 29.7172L39.6856 27.6553C40.4352 26.9442 40.0207 25.7009 38.9837 25.5543ZM35.0952 30.5853C33.3905 29.7134 33.6615 29.687 31.9051 30.5853C32.2305 28.7399 32.3411 28.9818 30.9193 27.6333C32.8807 27.356 32.6478 27.4893 33.5001 25.809C34.354 27.4923 34.12 27.3561 36.081 27.6333C34.6994 28.9437 34.7602 28.6851 35.0952 30.5853Z" fill="#94D40B"/>
<path d="M51.828 44.2772L44.1794 31.387C46.5954 24.3252 41.179 16.9824 33.5002 16.9824C25.8197 16.9824 20.4059 24.3275 22.8209 31.3868L15.1724 44.2772C14.6346 45.1834 15.4348 46.2914 16.494 46.1053L21.4382 45.2355L23.1356 49.8369C23.4984 50.8202 24.8833 50.9474 25.4236 50.0367L32.0951 38.7935C33.0313 38.9063 33.9684 38.9063 34.9051 38.7935L41.5767 50.0367C42.1169 50.9472 43.5018 50.8206 43.8647 49.8369L45.562 45.2355L50.5062 46.1053C51.5648 46.2913 52.3662 45.1841 51.828 44.2772ZM24.5964 46.5036L23.4595 43.4217C23.2506 42.8556 22.652 42.5185 22.0426 42.6257L18.7304 43.2084L24.1642 34.0507C25.457 35.9253 27.3407 37.3796 29.5346 38.1815L24.5964 46.5036ZM25.3889 31.0533C23.1262 25.4925 27.3323 19.446 33.5002 19.446C39.6729 19.446 43.873 25.4956 41.6116 31.0532C38.682 38.2504 28.2698 38.1315 25.3889 31.0533ZM44.9578 42.6256C44.3492 42.5187 43.7499 42.8551 43.5409 43.4216L42.404 46.5035L37.4658 38.1813C39.6084 37.3932 41.443 36.0334 42.8361 34.0505L48.2699 43.2082L44.9578 42.6256Z" fill="#94D40B"/>
</g>
<defs>
<clipPath id="clip0_15_103">
<rect width="37" height="36" fill="white" transform="translate(15.0002 15.8174)"/>
</clipPath>
</defs>
</svg>
