<svg width="136" height="26" viewBox="0 0 136 26" fill="none" xmlns="http://www.w3.org/2000/svg">
<path d="M0 11.4648V1.40048C0 1.40048 0.433164 0.366097 0.85956 0.708563L5.44839 0.638672C5.44839 0.638672 6.02369 0.708563 6.2132 1.54725V11.4648C6.2132 11.4648 6.35533 11.5626 5.44839 12.2545H0.85956C0.85956 12.2545 0.236887 12.1078 0 11.4648Z" fill="#94D40B"/>
<path d="M10.8427 23.8356V2.26728C10.8427 2.26728 11.2758 0.0447518 11.7022 0.785596L16.291 0.631836C16.291 0.631836 16.8663 0.785596 17.0558 2.58179V23.8286C17.0558 23.8286 17.198 24.0383 16.291 25.52H11.7022C11.7022 25.52 11.0795 25.2055 10.8427 23.8286V23.8356Z" fill="#94D40B"/>
<path d="M0 24.7372V14.6729C0 14.6729 0.433164 13.6386 0.85956 13.981L5.44839 13.9111C5.44839 13.9111 6.02369 13.981 6.2132 14.8197V24.7372C6.2132 24.7372 6.35533 24.8351 5.44839 25.527H0.85956C0.85956 25.527 0.236887 25.3802 0 24.7372Z" fill="#94D40B"/>
<path d="M18.538 14.4703V4.30812C18.538 4.30812 19.0659 3.42051 19.445 4.01458C19.824 4.60865 22.6937 9.49403 22.6937 9.49403C22.6937 9.49403 22.978 9.8365 23.3637 9.54296C23.7495 9.24941 28.2368 1.20496 28.2368 1.20496C28.2368 1.20496 28.9069 0.520031 29.1911 0.638846C29.4754 0.757661 34.4433 0.638846 34.4433 0.638846C34.4433 0.638846 34.9712 0.610889 35.1607 1.54743C35.3502 2.48397 35.1607 24.4367 35.1607 24.4367C35.1607 24.4367 35.6412 24.4856 34.6328 25.52H29.7597C29.7597 25.52 29.428 25.7157 28.9949 24.4367V13.9042C28.9949 13.9042 29.1844 12.7929 28.1827 13.4289L23.6412 21.3685C23.6412 21.3685 23.2081 21.9626 22.6395 21.5642L18.5312 14.4633L18.538 14.4703Z" fill="#94D40B"/>
<path d="M39.9391 1.64504V24.8349C39.9391 24.8349 40.3181 25.4988 40.7986 25.5338L45.3401 25.5198C45.3401 25.5198 45.9628 25.3241 46.1049 24.4365C46.247 23.5489 46.1049 7.66266 46.1049 7.66266C46.1049 7.66266 46.0102 6.87289 47.2014 6.87289C48.3926 6.87289 56.5685 6.82397 56.5685 6.82397C56.5685 6.82397 57.665 6.92181 57.8613 7.51589C58.0575 8.10996 58.0034 10.032 56.6159 9.88519H48.6362C48.6362 9.88519 47.9188 10.1787 47.7766 10.626C47.6345 11.0733 47.7293 15.5603 47.7293 15.5603C47.7293 15.5603 47.8105 16.1055 48.9408 16.3012L57.665 16.2523C57.665 16.2523 62.3012 15.0711 63.3976 11.6115C64.4941 8.15189 64.3993 3.17566 58.9577 0.9042C58.9577 0.9042 57.1912 0.491843 56.758 0.624636C56.3249 0.757429 40.846 0.59668 40.846 0.59668C40.846 0.59668 40.1286 0.855276 39.9391 1.64504Z" fill="#94D40B"/>
<path d="M62.1591 24.6323L70.132 1.35159C70.132 1.35159 70.4637 0.638697 71.3232 0.596763C72.1828 0.554828 76.2437 0.596763 76.2437 0.596763C76.2437 0.596763 77.1506 0.610741 77.198 1.25374C77.2454 1.89673 85.083 23.8984 85.083 23.8984C85.083 23.8984 85.462 24.9048 84.7039 25.5408H79.6413C79.6413 25.5408 79.9256 25.6317 78.9239 25.0866L78.1117 22.7662C78.1117 22.7662 78.017 22.3189 77.1574 22.3748C76.2979 22.4307 72.2843 22.3748 72.2843 22.3748C72.2843 22.3748 71.2826 22.2769 71.6143 20.8442C71.9459 19.4114 73.3808 16.3083 73.3808 16.3083L75.0051 16.1126C75.0051 16.1126 75.5331 16.2104 75.4857 14.6309L74.5787 12.0659C74.5787 12.0659 73.8613 11.1293 73.0017 12.0169L68.4603 25.1914C68.4603 25.1914 68.1693 25.5059 67.7158 25.5478C67.2623 25.5898 63.0119 25.5478 63.0119 25.5478C63.0119 25.5478 62.2471 25.4849 62.1523 24.6462L62.1591 24.6323Z" fill="#94D40B"/>
<path d="M85.9493 12.2549H90.5855C90.5855 12.2549 91.1608 12.1081 91.3029 11.1716C91.445 10.235 91.3029 9.15173 91.3029 9.15173C91.3029 9.15173 91.5398 6.9292 95.2217 6.9292H108.359C108.359 6.9292 109.408 7.02705 109.36 5.64321C109.313 4.25936 109.36 1.54759 109.36 1.54759C109.36 1.54759 109.313 0.555143 108.068 0.583099C106.822 0.611056 93.6853 0.583099 93.6853 0.583099C93.6853 0.583099 88.8596 1.00943 86.423 5.15397C86.423 5.15397 83.8444 10.5286 85.9425 12.2549H85.9493Z" fill="#94D40B"/>
<path d="M85.9492 13.8341H90.3418C90.3418 13.8341 91.3434 14.1766 91.1539 14.9174C90.9644 15.6583 91.2013 19.6071 94.1658 19.2088L108.02 19.2367C108.02 19.2367 109.171 19.1598 109.36 20.1942C109.55 21.2286 109.36 24.835 109.36 24.835C109.36 24.835 108.927 25.5828 108.453 25.5549C107.98 25.5269 93.2588 25.5549 93.2588 25.5549C93.2588 25.5549 89.8206 25.7715 86.9035 21.8227C83.9864 17.8738 85.3739 13.932 85.9492 13.8271V13.8341Z" fill="#94D40B"/>
<path d="M111.695 1.10012V5.76884C111.695 5.76884 111.438 6.36291 112.65 6.94999C113.861 7.53708 135.201 6.94999 135.201 6.94999C135.201 6.94999 135.905 7.08279 135.966 5.69895C136.027 4.31511 135.966 1.42162 135.966 1.42162C135.966 1.42162 135.519 0.373254 134.376 0.568949C133.232 0.764644 112.528 0.568949 112.528 0.568949C112.528 0.568949 112.271 0.366265 111.702 1.09313L111.695 1.10012Z" fill="#94D40B"/>
<path d="M121.137 25.5409H125.658C125.658 25.5409 126.234 25.7156 126.802 24.8699C127.371 24.0243 126.802 9.10254 126.802 9.10254C126.802 9.10254 126.931 8.61331 125.591 8.57137C124.25 8.52944 121.448 8.57137 121.448 8.57137C121.448 8.57137 120.433 8.88588 120.623 9.68264C120.812 10.4794 120.623 24.9608 120.623 24.9608C120.623 24.9608 120.426 25.1355 121.13 25.5409H121.137Z" fill="#94D40B"/>
</svg>
