<svg width="1486" height="549" viewBox="0 0 1486 549" fill="none" xmlns="http://www.w3.org/2000/svg">
<g clip-path="url(#clip0_199_230)">
<path d="M83.5956 18.8857V358.492H0.5V18.8857H83.5956Z" fill="#FFECCA"/>
<path d="M190.976 350.267C172.509 342.208 157.931 331.154 147.243 317.137C136.555 303.104 130.554 287.383 129.257 269.974H211.372C212.336 279.34 216.725 286.903 224.487 292.712C232.267 298.52 241.808 301.416 253.161 301.416C263.517 301.416 271.546 299.397 277.214 295.376C282.882 291.355 285.724 286.109 285.724 279.655C285.724 271.91 281.669 266.185 273.573 262.478C265.478 258.771 252.347 254.667 234.212 250.149C214.78 245.631 198.573 240.882 185.624 235.884C172.659 230.887 161.488 222.993 152.097 212.187C142.688 201.381 138.001 186.785 138.001 168.4C138.001 152.927 142.289 138.812 150.883 126.069C159.46 113.327 172.093 103.249 188.782 95.8354C205.471 88.4217 225.302 84.7148 248.307 84.7148C282.317 84.7148 309.129 93.1049 328.727 109.868C348.325 126.648 359.578 148.89 362.504 176.625H285.724C284.428 167.275 280.289 159.861 273.341 154.367C266.376 148.89 257.217 146.142 245.88 146.142C236.156 146.142 228.709 147.996 223.523 151.703C218.337 155.41 215.744 160.49 215.744 166.944C215.744 174.688 219.866 180.497 228.128 184.353C236.389 188.225 249.271 192.097 266.758 195.97C286.838 201.133 303.195 206.213 315.844 211.211C328.477 216.208 339.565 224.267 349.122 235.405C358.68 246.525 363.617 261.452 363.95 280.151C363.95 295.955 359.495 310.071 350.585 322.482C341.676 334.893 328.876 344.657 312.204 351.756C295.515 358.839 276.167 362.397 254.142 362.397C230.488 362.397 209.444 358.376 190.976 350.3V350.267Z" fill="#FFECCA"/>
<path d="M498.093 0.5V358.491H414.998V0.5H498.093Z" fill="#FFECCA"/>
<path d="M557.618 149.982C568.14 129.015 582.469 112.897 600.62 101.611C618.755 90.3246 639.002 84.6816 661.359 84.6816C680.475 84.6816 697.23 88.554 711.658 96.2986C726.07 104.043 737.174 114.204 744.936 126.781V88.5705H828.032V358.508H744.936V320.298C736.841 332.874 725.571 343.035 711.16 350.78C696.748 358.524 679.976 362.397 660.86 362.397C638.819 362.397 618.739 356.671 600.604 345.22C582.452 333.768 568.123 317.484 557.601 296.352C547.063 275.236 541.81 250.794 541.81 223.059C541.81 195.324 547.079 170.981 557.601 150.015L557.618 149.982ZM727.699 174.655C716.196 162.724 702.184 156.75 685.661 156.75C669.138 156.75 655.125 162.641 643.623 174.407C632.12 186.189 626.368 202.39 626.368 223.026C626.368 243.662 632.12 260.028 643.623 272.125C655.125 284.222 669.138 290.262 685.661 290.262C702.184 290.262 716.196 284.305 727.699 272.357C739.202 260.426 744.953 244.142 744.953 223.49C744.953 202.837 739.202 186.57 727.699 174.622V174.655Z" fill="#FFECCA"/>
<path d="M1129.56 116.355C1148.51 136.842 1157.99 164.975 1157.99 200.769V358.475H1075.37V211.889C1075.37 193.835 1070.67 179.802 1061.28 169.807C1051.89 159.811 1039.24 154.814 1023.38 154.814C1007.52 154.814 994.872 159.811 985.48 169.807C976.088 179.802 971.384 193.835 971.384 211.889V358.475H888.289V88.5541H971.384V124.348C979.812 112.417 991.148 102.984 1005.39 96.0505C1019.64 89.1168 1035.68 85.6416 1053.5 85.6416C1085.25 85.6416 1110.6 95.8851 1129.55 116.355H1129.56Z" fill="#FFECCA"/>
<path d="M1215.09 149.982C1225.61 129.015 1239.94 112.897 1258.09 101.611C1276.22 90.3247 1296.47 84.6817 1318.83 84.6817C1336.65 84.6817 1352.92 88.3885 1367.66 95.8022C1382.41 103.232 1393.98 113.211 1402.4 125.788V0.5H1485.5V358.491H1402.4V319.785C1394.62 332.692 1383.52 343.002 1369.13 350.747C1354.71 358.491 1337.94 362.364 1318.83 362.364C1296.47 362.364 1276.22 356.638 1258.09 345.186C1239.94 333.735 1225.61 317.451 1215.09 296.319C1204.55 275.203 1199.29 250.761 1199.29 223.026C1199.29 195.291 1204.56 170.948 1215.09 149.982ZM1385.17 174.655C1373.66 162.724 1359.65 156.75 1343.13 156.75C1326.61 156.75 1312.59 162.641 1301.09 174.407C1289.59 186.189 1283.84 202.39 1283.84 223.026C1283.84 243.662 1289.59 260.028 1301.09 272.125C1312.59 284.222 1326.61 290.262 1343.13 290.262C1359.65 290.262 1373.66 284.305 1385.17 272.357C1396.67 260.426 1402.42 244.142 1402.42 223.49C1402.42 202.837 1396.67 186.57 1385.17 174.622V174.655Z" fill="#FFECCA"/>
<path d="M167.738 423.196L132.283 547.26H114.38L85.9558 447.407L56.4676 547.26L38.7481 547.442L4.53906 423.196H21.5605L48.2395 528.394L77.7277 423.196H95.6301L123.705 528.03L150.551 423.196H167.755H167.738Z" fill="#FFECCA"/>
<path d="M252.147 436.352V477.822H296.728V491.176H252.147V533.888H301.981V547.242H236.173V422.997H301.981V436.352H252.147Z" fill="#FFECCA"/>
<path d="M450.536 488.86C454.226 491.822 457.152 495.513 459.313 499.898C461.474 504.283 462.554 508.983 462.554 513.964C462.554 520.253 460.975 525.912 457.817 530.959C454.659 536.007 450.071 539.978 444.037 542.891C438.003 545.803 430.905 547.26 422.71 547.26H377.082V423.196H420.948C429.259 423.196 436.324 424.586 442.175 427.383C448.026 430.18 452.415 433.936 455.34 438.686C458.266 443.435 459.728 448.78 459.728 454.704C459.728 462.068 457.767 468.142 453.844 472.941C449.921 477.74 444.752 481.215 438.319 483.35C442.757 484.061 446.829 485.898 450.52 488.86H450.536ZM393.072 476.763H419.918C427.398 476.763 433.199 474.976 437.288 471.418C441.377 467.86 443.422 462.929 443.422 456.641C443.422 450.352 441.377 445.421 437.288 441.863C433.199 438.305 427.281 436.518 419.569 436.518H393.072V476.747V476.763ZM439.931 528.212C444.369 524.423 446.597 519.127 446.597 512.376C446.597 505.624 444.253 500.064 439.582 496.092C434.894 492.12 428.644 490.135 420.799 490.135H393.072V533.922H421.331C429.293 533.922 435.493 532.019 439.931 528.229V528.212Z" fill="#FFECCA"/>
<path d="M706.04 430.759C715.814 435.806 723.294 443.021 728.497 452.388C733.699 461.771 736.309 472.792 736.309 485.501C736.309 498.21 733.699 509.198 728.497 518.515C723.294 527.832 715.797 534.948 706.04 539.879C696.266 544.81 684.713 547.26 671.382 547.26H633.3V423.196H671.382C684.713 423.196 696.266 425.712 706.04 430.759ZM707.536 521.179C715.847 512.69 720.003 500.792 720.003 485.484C720.003 470.177 715.814 458.014 707.453 449.359C699.091 440.704 687.073 436.369 671.398 436.369H649.291V533.905H671.398C687.19 533.905 699.241 529.669 707.552 521.179H707.536Z" fill="#FFECCA"/>
<path d="M824.225 436.352V477.822H868.807V491.176H824.225V533.888H874.06V547.242H808.251V422.997H874.06V436.352H824.225Z" fill="#FFECCA"/>
<path d="M966.281 544.132C959.898 541.219 954.894 537.198 951.271 532.035C947.647 526.872 945.769 520.914 945.652 514.146H962.674C963.256 519.954 965.633 524.853 969.788 528.824C973.944 532.796 979.994 534.782 987.957 534.782C995.919 534.782 1001.55 532.862 1005.94 528.99C1010.33 525.134 1012.52 520.186 1012.52 514.129C1012.52 509.38 1011.24 505.524 1008.67 502.562C1006.09 499.6 1002.88 497.349 999.01 495.794C995.154 494.255 989.935 492.583 983.385 490.813C975.307 488.678 968.841 486.543 963.987 484.409C959.133 482.274 954.978 478.914 951.52 474.347C948.063 469.78 946.351 463.64 946.351 455.929C946.351 449.16 948.046 443.17 951.437 437.957C954.828 432.744 959.599 428.707 965.732 425.86C971.883 423.014 978.914 421.591 986.876 421.591C998.346 421.591 1007.72 424.503 1015.03 430.312C1022.35 436.12 1026.47 443.832 1027.4 453.446H1009.85C1009.27 448.697 1006.81 444.527 1002.48 440.903C998.163 437.279 992.428 435.475 985.28 435.475C978.615 435.475 973.179 437.229 968.957 440.721C964.752 444.229 962.641 449.111 962.641 455.399C962.641 459.917 963.904 463.591 966.414 466.437C968.924 469.283 972.032 471.451 975.722 472.94C979.413 474.43 984.582 476.118 991.248 478.021C999.326 480.271 1005.81 482.505 1010.73 484.69C1015.65 486.891 1019.85 490.267 1023.36 494.834C1026.87 499.401 1028.63 505.607 1028.63 513.434C1028.63 519.491 1027.05 525.184 1023.89 530.529C1020.74 535.874 1016.05 540.21 1009.85 543.519C1003.65 546.846 996.334 548.5 987.907 548.5C979.479 548.5 972.614 547.044 966.231 544.132H966.281Z" fill="#FFECCA"/>
<path d="M1119.04 423.196V547.26H1103.07V423.196H1119.04Z" fill="#FFECCA"/>
<path d="M1289.79 459.139C1286.4 451.907 1281.48 446.297 1275.04 442.325C1268.61 438.354 1261.11 436.368 1252.59 436.368C1244.06 436.368 1236.35 438.354 1229.51 442.325C1222.67 446.297 1217.28 452.006 1213.37 459.42C1209.45 466.834 1207.49 475.406 1207.49 485.136C1207.49 494.867 1209.45 503.406 1213.37 510.77C1217.3 518.134 1222.68 523.793 1229.51 527.765C1236.36 531.736 1244.04 533.722 1252.59 533.722C1264.52 533.722 1274.34 530.098 1282.07 522.867C1289.8 515.635 1294.29 505.838 1295.59 493.493H1246.8V480.321H1312.61V492.782C1311.68 502.992 1308.52 512.325 1303.13 520.815C1297.75 529.304 1290.67 536.006 1281.91 540.921C1273.13 545.852 1263.36 548.301 1252.6 548.301C1241.25 548.301 1230.89 545.604 1221.54 540.209C1212.18 534.814 1204.78 527.302 1199.34 517.687C1193.91 508.072 1191.18 497.217 1191.18 485.12C1191.18 473.023 1193.91 462.134 1199.34 452.453C1204.78 442.789 1212.18 435.243 1221.54 429.848C1230.89 424.453 1241.25 421.756 1252.6 421.756C1265.58 421.756 1277.09 425.016 1287.08 431.553C1297.08 438.073 1304.36 447.273 1308.92 459.139H1289.79Z" fill="#FFECCA"/>
<path d="M1480.71 547.259H1464.74L1400.51 448.465V547.259H1384.54V423.014H1400.51L1464.74 521.626V423.014H1480.71V547.259Z" fill="#FFECCA"/>
</g>
<defs>
<clipPath id="clip0_199_230">
<rect width="1485" height="548" fill="white" transform="translate(0.5 0.5)"/>
</clipPath>
</defs>
</svg>
