<svg width="26" height="28" viewBox="0 0 26 28" fill="none" xmlns="http://www.w3.org/2000/svg">
<g clip-path="url(#clip0_146_149)">
<path d="M22.0857 13.0215C21.3511 13.0215 20.7564 14.9967 20.7564 15.7589C20.7564 16.5211 21.3511 17.1381 22.0857 17.1381C22.8202 17.1381 23.415 16.5211 23.415 15.7589C23.415 14.9967 22.8202 13.0215 22.0857 13.0215Z" fill="black"/>
<path d="M24.6713 19.4194C23.9379 19.4194 23.3431 21.3952 23.3431 22.1568C23.3431 22.919 23.9379 23.5373 24.6713 23.5373C25.4047 23.5373 26.0006 22.919 26.0006 22.1568C25.9995 21.3964 25.4053 19.4194 24.6713 19.4194Z" fill="black"/>
<path d="M22.329 11.2109L23.1609 10.1231C23.2826 9.96381 23.2741 9.73697 23.1411 9.58829L20.7111 6.86091C20.5362 6.66462 20.2872 6.55767 20.0292 6.56766C19.7723 6.57824 19.5312 6.704 19.3705 6.91438L18.4616 8.10501C18.3015 8.31422 18.2375 8.58631 18.2851 8.84959C18.3343 9.11228 18.4911 9.34029 18.7152 9.47311L21.822 11.3119C21.9918 11.4118 22.2074 11.3701 22.329 11.2109Z" fill="black"/>
<path d="M16.3644 17.1663H1.13017C0.506543 17.1663 0.00175476 17.6929 0.00175476 18.3399C0.00175476 18.9887 0.506543 19.5135 1.13017 19.5135H16.3638C16.9869 19.5135 17.4922 18.9869 17.4922 18.3399C17.4928 17.6935 16.9869 17.1663 16.3644 17.1663Z" fill="black"/>
<path d="M16.3644 20.7029H1.13017C0.506543 20.7029 0.00175476 21.2295 0.00175476 21.8759C0.00175476 22.5235 0.506543 23.0495 1.13017 23.0495H16.3638C16.9869 23.0495 17.4922 22.523 17.4922 21.8759C17.4922 21.2289 16.9869 20.7029 16.3644 20.7029Z" fill="black"/>
<path d="M16.3644 24.2078H1.13017C0.506543 24.2078 0.00175476 24.7343 0.00175476 25.3813C0.00175476 26.0284 0.506543 26.5543 1.13017 26.5543H16.3638C16.9869 26.5543 17.4922 26.0278 17.4922 25.3813C17.4928 24.7331 16.9869 24.2078 16.3644 24.2078Z" fill="black"/>
<path d="M18.0842 5.4446C17.9387 5.30003 14.4471 1.90917 8.36076 2.48861C3.11085 2.98931 0.0623136 5.23892 0.000629852 8.66328C-0.0401154 10.9023 1.37125 12.8986 3.77523 14.004C6.83791 15.4121 9.4043 14.0663 11.2786 13.0843C13.1121 12.1217 13.7369 11.926 14.3407 12.4878C14.8013 12.9163 14.768 13.2172 14.7532 13.3482C14.6718 14.0875 13.8269 15.0389 12.8507 15.8217H15.7074C16.2891 15.2617 16.9082 14.4037 16.9948 13.615C17.0774 12.8657 16.9439 11.7609 15.8443 10.7383C14.0023 9.02587 12.0126 10.0702 10.2588 10.9905C8.54468 11.889 6.77283 12.8187 4.68633 11.8602C3.14084 11.1497 2.232 9.97026 2.25463 8.70618C2.3084 5.73785 6.68568 5.00208 8.56449 4.82284C13.5835 4.34859 16.404 7.02485 16.5251 7.14356C16.9761 7.58725 17.688 7.56903 18.1164 7.10184C18.5505 6.63346 18.5346 5.89123 18.0842 5.4446Z" fill="black"/>
</g>
<defs>
<clipPath id="clip0_146_149">
<rect width="26" height="27" fill="white" transform="translate(6.10352e-05 0.988281)"/>
</clipPath>
</defs>
</svg>
