<svg width="27" height="27" viewBox="0 0 27 27" fill="none" xmlns="http://www.w3.org/2000/svg">
<g clip-path="url(#clip0_146_173)">
<path d="M1.16611 8.57883C1.05397 7.67492 1.24016 6.90283 1.62525 6.2814C1.90455 5.82735 2.28753 5.4591 2.73609 5.18081C3.17831 4.90671 3.6819 4.72049 4.21087 4.63261C5.04876 4.49242 5.95859 4.59285 6.77955 4.96111C7.07154 4.40872 7.48626 3.93794 8.02369 3.58642C8.64365 3.18259 9.42018 2.94406 10.3533 2.94406C11.3647 2.94406 12.3211 3.36881 13.0214 4.05302C13.5398 4.56147 13.9164 5.21429 14.0688 5.94243C14.6718 5.63276 15.2346 5.49048 15.7424 5.49257C16.1593 5.49257 16.5401 5.59092 16.8744 5.76877C17.2066 5.94871 17.4902 6.20607 17.7166 6.53458C18.0974 7.08278 18.3175 7.82976 18.3429 8.70646C18.4508 8.8613 18.5143 9.04752 18.5312 9.26513C18.5375 9.35091 18.5354 9.43879 18.5291 9.53086C18.5248 9.56224 18.5206 9.59363 18.5121 9.62083L16.9824 16.2432C16.4259 16.7098 15.8398 17.1157 15.2346 17.4756L17.6171 9.42624C17.6213 9.38858 17.6213 9.35301 17.6171 9.32581C17.6129 9.28605 17.6087 9.25466 17.5981 9.23583C17.5811 9.22328 17.5663 9.20654 17.5515 9.1898C17.5177 9.17515 17.4669 9.16469 17.4013 9.15842C17.3463 9.15423 17.2849 9.15423 17.2193 9.15632C17.2003 9.15841 17.1834 9.16051 17.1643 9.16051H1.89186C1.8707 9.16469 1.858 9.17097 1.85377 9.17725C1.81568 9.26094 1.81145 9.40532 1.82838 9.58526L4.17278 19.5471C4.62135 19.7479 4.39072 19.6852 4.88795 19.7186C5.87818 19.7856 6.93401 19.545 7.93482 19.0512C10.1502 17.9548 12.0798 15.628 12.4395 12.6192C12.0079 12.4121 11.7117 11.9768 11.7117 11.4705C11.7159 10.7695 12.2914 10.1962 13.0045 10.1962C13.7175 10.1962 14.2952 10.7675 14.2952 11.4726C14.2952 12.0584 13.8953 12.5522 13.3515 12.7008C12.9601 16.0444 10.8124 18.6369 8.34742 19.8567C7.20061 20.4238 5.97975 20.6979 4.83082 20.6184C4.44996 20.5912 4.79062 20.7041 4.43092 20.5995C4.9874 22.6689 5.45712 22.6605 7.17311 22.6291C7.4926 22.6249 7.84384 22.6166 8.08717 22.6166H8.19085C8.20566 22.6438 8.21835 22.671 8.23316 22.6982C8.39397 22.9953 8.64576 23.2694 8.95468 23.5205H8.08717C7.66611 23.5205 7.41432 23.5247 7.1858 23.5288C4.7483 23.5749 4.20875 23.5833 3.42164 20.3212V20.3191H3.41953L3.38144 20.1559C3.02597 19.953 2.68954 19.6998 2.37851 19.3943C0.651947 17.6932 -0.215566 14.3517 0.943939 8.91151C0.967214 8.79853 1.03281 8.70228 1.11956 8.63951C1.13437 8.61649 1.14918 8.59766 1.16611 8.57883ZM3.05982 18.7938L1.40732 11.7802C1.06031 15.2954 1.78183 17.5363 3.01962 18.7582C3.03443 18.7708 3.04713 18.7833 3.05982 18.7938ZM17.3928 8.25032C17.3251 7.7628 17.1791 7.3527 16.9612 7.03884C16.8152 6.8296 16.6396 6.6664 16.4365 6.55759C16.2354 6.44879 16.0006 6.3923 15.7382 6.3923C15.2346 6.3923 14.6274 6.60153 13.9397 7.06813C13.8657 7.11835 13.7747 7.14764 13.6773 7.14764C13.4277 7.14346 13.2267 6.94259 13.2267 6.69569C13.2245 6.68314 13.2245 6.67267 13.2245 6.66012C13.2245 5.89431 12.8945 5.19755 12.3761 4.69119C11.845 4.17019 11.1171 3.84587 10.3533 3.84587C9.60637 3.84587 8.997 4.02791 8.52304 4.33549C8.011 4.66818 7.64706 5.15779 7.42701 5.7332C7.41643 5.76249 7.40374 5.78969 7.38681 5.8148C7.25563 6.02822 6.97421 6.09518 6.76051 5.96336C6.02418 5.51768 5.15667 5.38168 4.36321 5.51768C3.95061 5.58673 3.56129 5.72901 3.22275 5.93825C2.89267 6.14539 2.60914 6.41531 2.4039 6.74591C2.15211 7.15392 2.01881 7.65818 2.05478 8.25242H17.1622C17.2405 8.25032 17.3167 8.24823 17.3928 8.25032ZM19.3881 13.7051C19.5489 13.5378 19.7753 13.4373 20.0758 13.4122L22.6635 13.7784C23.2263 13.8579 23.7743 14.0274 23.8124 14.7137C23.8251 14.9459 23.7701 15.2117 23.7341 15.5464L23.7151 15.7285C23.641 16.4022 23.4506 16.3248 22.892 16.5947C24.2885 18.8587 25.8987 21.2523 26.3959 23.9369C26.506 24.4893 26.1484 24.8512 25.4395 25.073L24.1721 25.3074C24.297 23.849 23.9076 22.3153 23.0803 20.7188C23.3067 22.5392 23.5331 24.3135 23.2327 25.3618L21.9293 25.6045C21.741 25.0165 21.5865 24.5625 21.3199 24.3742L21.0173 25.4999L18.8232 25.3932C19.6124 24.2005 20.0969 22.9137 20.226 21.5139C19.5383 23.0246 18.7745 24.144 17.9176 24.8136C17.5156 25.2216 17.1643 25.3053 16.8639 25.0437C16.6502 24.8575 16.684 24.7424 16.7284 24.4704C16.7856 24.1189 16.9273 23.7569 17.1241 23.3949C16.6819 23.8866 16.4026 24.0059 16.1529 24.2675C15.4483 25.0144 14.2296 24.8994 14.0349 23.8636C13.9101 23.2003 14.3565 22.9869 14.8093 22.5182L15.5964 21.7043C14.7141 22.2504 13.8297 22.7735 12.9389 23.102C11.9148 23.4807 11.9106 23.441 10.9711 22.9597C9.70582 22.3132 8.76425 21.5746 10.5247 21.1289C13.7662 20.0743 16.9273 18.8336 19.4177 16.0402C19.1554 15.8833 19.0115 15.6804 18.9671 15.4418C18.8972 15.0861 19.1342 13.9688 19.3881 13.7051ZM22.9005 2.18871L20.9793 11.8136C20.8015 13.4248 22.6974 13.5712 22.9978 11.9873L24.8767 2.34773C24.8323 1.00443 23.294 0.709403 22.9005 2.18871Z" fill="black"/>
</g>
<defs>
<clipPath id="clip0_146_173">
<rect width="26" height="25.7111" fill="white" transform="translate(0.41497 0.548279)"/>
</clipPath>
</defs>
</svg>
