<svg width="28" height="28" viewBox="0 0 28 28" fill="none" xmlns="http://www.w3.org/2000/svg">
<g clip-path="url(#clip0_146_183)">
<path d="M27.0715 26.0013C27.0715 25.6878 26.8914 25.422 26.6383 25.274C26.7277 25.125 26.7754 24.9549 26.7766 24.7812C26.7773 24.5262 26.6767 24.2814 26.497 24.1006C26.3173 23.9198 26.0731 23.8177 25.8181 23.8168C25.7983 23.8168 25.7772 23.8227 25.757 23.8252V23.7058C25.757 23.4337 25.5368 23.2122 25.2659 23.2122C25.1971 23.2122 25.1339 23.2304 25.0748 23.257V22.9081H25.8266V20.6519H25.2819V18.772H25.8266V16.5154H25.2819V14.6351H25.8266V12.3785H25.2819V10.4982H25.8266V8.24201H25.2819V6.36172H25.8266V2.97744H20.8472V1.73248H7.56867V3.35333H6.27183V2.97744H2.51124V21.78H1.75903V22.9081H2.51124V27.045H27.0715V26.6303H26.7944C26.9631 26.4738 27.0715 26.2506 27.0715 26.0013ZM17.5532 6.36214H19.4335V8.24244H17.5532V6.36214ZM17.5532 10.4982H19.4335V12.3785H17.5532V10.4982ZM17.5532 14.6351H19.4335V16.5154H17.5532V14.6351ZM17.5532 18.772H19.4335V20.6523H17.5532V18.772ZM13.7926 6.36214H15.6729V8.24244H13.7926V6.36214ZM13.7926 10.4982H15.6729V12.3785H13.7926V10.4982ZM13.7926 14.6351H15.6729V16.5154H13.7926V14.6351ZM13.7926 18.772H15.6729V20.6523H13.7926V18.772ZM7.8661 26.6303H6.738V23.6607H7.8661V26.6303ZM9.37008 26.6303H8.24199V23.6607H9.37008V26.6303ZM11.9123 26.6303H9.74597V23.2844H6.36169V26.6303H3.26302V22.9085H11.9123V26.6303ZM11.9123 18.772V21.7804H6.27141V18.208H11.9123V18.772ZM11.9123 14.6351V17.0795H6.27141V14.0711H11.9123V14.6351ZM11.9123 10.4982V12.9425H6.27141V9.93415H11.9123V10.4982ZM11.9123 6.36214V8.80648H6.27141V5.79809H11.9123V6.36214ZM11.9123 4.66958H6.27141V3.72922H11.9123V4.66958ZM13.7926 26.6303H12.5481V26.2156H13.7926V22.9085H15.6729V26.2156H17.5532V22.9085H19.4335V26.2156H21.1547C21.24 26.416 21.4117 26.567 21.6226 26.6303H13.7926ZM21.3142 24.2028V22.9085H23.1945V23.4852C23.1489 23.4759 23.1055 23.4607 23.0565 23.4607C22.9171 23.4613 22.7808 23.5016 22.6634 23.5768C22.546 23.652 22.4525 23.7591 22.3938 23.8856C22.2919 23.8498 22.1849 23.8309 22.077 23.8295C21.7669 23.8295 21.4935 23.9771 21.3142 24.2028ZM21.882 25.927C21.7466 25.927 21.6382 26.0633 21.6382 25.927C21.6382 25.862 21.664 25.7997 21.71 25.7537C21.756 25.7077 21.8183 25.6819 21.8833 25.6819C21.9483 25.6819 22.0107 25.7077 22.0566 25.7537C22.1026 25.7997 22.1284 25.862 22.1284 25.927C22.1284 26.0633 22.0196 25.927 21.882 25.927ZM22.1453 24.599C21.8736 24.599 21.6534 25.031 21.6534 24.7555C21.6534 24.6248 21.7053 24.4994 21.7977 24.407C21.8901 24.3146 22.0155 24.2627 22.1461 24.2627C22.2768 24.2627 22.4022 24.3146 22.4946 24.407C22.587 24.4994 22.6389 24.6248 22.6389 24.7555C22.6389 25.0314 22.4204 24.599 22.1453 24.599ZM23.2143 25.9253C22.9435 25.9253 22.7233 26.3046 22.7233 26.0312C22.7235 25.9009 22.7752 25.7759 22.8672 25.6836C22.9592 25.5913 23.084 25.5391 23.2143 25.5385C23.2788 25.5386 23.3426 25.5514 23.4021 25.5763C23.4616 25.6011 23.5156 25.6375 23.561 25.6833C23.6064 25.7291 23.6423 25.7834 23.6667 25.8431C23.691 25.9028 23.7033 25.9667 23.7029 26.0312C23.7033 26.3046 23.4877 25.9253 23.2143 25.9253ZM23.832 23.9539C23.832 23.8659 23.8669 23.7815 23.9291 23.7193C23.9914 23.6571 24.0758 23.6221 24.1638 23.6221C24.2518 23.6221 24.3362 23.6571 24.3984 23.7193C24.4606 23.7815 24.4956 23.8659 24.4956 23.9539C24.4956 24.1378 24.3479 23.8611 24.1627 23.8611C23.9796 23.8611 23.832 24.1374 23.832 23.9539ZM24.4091 25.1719C24.2737 25.1719 24.1652 25.3085 24.1652 25.1719C24.1652 25.0373 24.2737 24.9272 24.4091 24.9272C24.4414 24.9269 24.4734 24.9331 24.5032 24.9453C24.5331 24.9575 24.5603 24.9755 24.5832 24.9982C24.6061 25.021 24.6243 25.048 24.6367 25.0778C24.6491 25.1076 24.6555 25.1396 24.6555 25.1719C24.6555 25.3085 24.5479 25.1719 24.4091 25.1719ZM24.6597 20.6523H20.8991V18.772H24.6597V20.6523ZM24.6597 16.5154H20.8991V14.6351H24.6597V16.5154ZM24.6597 12.3785H20.8991V10.4982H24.6597V12.3785ZM24.6597 8.24244H20.8991V6.36214H24.6597V8.24244ZM25.0794 26.0595C24.8959 26.0595 24.7487 26.3358 24.7487 26.1523C24.7471 26.1078 24.7545 26.0634 24.7704 26.0218C24.7864 25.9802 24.8105 25.9423 24.8415 25.9102C24.8724 25.8782 24.9095 25.8527 24.9505 25.8353C24.9914 25.8178 25.0355 25.8089 25.0801 25.8089C25.1246 25.8089 25.1687 25.8178 25.2097 25.8353C25.2507 25.8527 25.2878 25.8782 25.3187 25.9102C25.3496 25.9423 25.3738 25.9802 25.3897 26.0218C25.4056 26.0634 25.413 26.1078 25.4115 26.1523C25.4115 26.3358 25.2651 26.0595 25.0794 26.0595ZM25.1651 24.4614C25.0292 24.4614 24.9212 24.6403 24.9212 24.504C24.9212 24.3648 25.0292 24.256 25.1651 24.256C25.2988 24.256 25.4115 24.3648 25.4115 24.504C25.4115 24.6403 25.2992 24.4614 25.1651 24.4614ZM25.7519 25.217C25.7519 25.152 25.7777 25.0898 25.8236 25.0438C25.8696 24.9979 25.9319 24.9721 25.9968 24.9721C26.0618 24.9721 26.124 24.9979 26.17 25.0438C26.2159 25.0898 26.2417 25.152 26.2417 25.217C26.2417 25.3533 26.1337 25.1769 25.9983 25.1769C25.8608 25.1769 25.7519 25.3533 25.7519 25.217ZM26.2227 26.0949C26.0869 26.0949 25.9755 26.2341 25.9755 26.0949C25.9755 25.9608 26.0869 25.849 26.2227 25.849C26.3573 25.849 26.4666 25.9608 26.4666 26.0949C26.4666 26.2341 26.3577 26.0949 26.2227 26.0949Z" fill="black"/>
</g>
<defs>
<clipPath id="clip0_146_183">
<rect width="27" height="27" fill="white" transform="translate(0.915283 0.888733)"/>
</clipPath>
</defs>
</svg>
